<?xml version="1.0" encoding="utf-8"?>
<!-- Generator: Adobe Illustrator 24.1.1, SVG Export Plug-In . SVG Version: 6.00 Build 0)  -->
<svg version="1.1" id="Layer_1" xmlns="http://www.w3.org/2000/svg" xmlns:xlink="http://www.w3.org/1999/xlink" x="0px" y="0px"
	 viewBox="0 0 340.79 305.65" style="enable-background:new 0 0 340.79 305.65;" xml:space="preserve">
<style type="text/css">
	.st0{fill:#FFFFFF;}
</style>
<desc>Created with Sketch.</desc>
<g id="Page-1">
	<g id="coffee-cup">
		<path id="Shape" class="st0" d="M117.57,0c12.21,0.34,24.42,0.44,36.6,1.05c18.79,0.95,37.59,2.14,56.11,5.77
			c4.41,0.88,8.68,2.48,12.89,4.07c3.26,1.26,5.36,3.93,5.8,7.4c0.58,4.48,0.85,8.99,1.02,13.47c0.14,3.43-0.1,6.89-0.03,10.35
			c0.03,2.78,1.39,4.38,4.17,4.65c2,0.2,4.07,0.1,6.04-0.31c17.88-3.46,35.11-1.46,51.6,6.28c9.16,4.31,16.62,10.75,23.07,18.56
			c7.53,9.16,13.09,19.37,16.93,30.53c5.8,16.96,9.19,34.43,9.02,52.38c-0.2,18.52-3.66,36.43-12.42,52.99
			c-7.56,14.28-18.22,25.68-32.84,33.01c-11.09,5.56-22.9,7.53-35.21,6.48c-8.75-0.75-17.33-2.54-25.78-4.95
			c-1.46-0.41-2.99-0.64-4.51-0.64c-2.31-0.03-3.39,0.92-3.9,3.19c-0.24,1.02-0.24,2.14-0.27,3.19c-0.14,8.48-0.2,16.96-0.34,25.41
			c-0.07,5.7-2.58,9.97-7.33,13.16c-7.16,4.78-15.13,7.6-23.3,9.94c-14.01,3.97-28.29,6.65-42.81,7.8
			c-10.92,0.88-21.88,1.8-32.8,1.9c-10.72,0.1-21.47-0.37-32.16-1.29c-11.7-1.02-23.37-2.58-34.97-4.38
			c-11.47-1.8-22.73-4.68-33.31-9.57c-3.46-1.59-6.72-3.7-9.91-5.8c-3.63-2.37-5.7-5.9-6.31-10.21C2.27,272.06,2,269.68,2,267.31
			c0.03-9.77,0.24-19.54,0.27-29.31c0.07-12.72,0.1-25.44,0-38.16c-0.1-10.96-0.44-21.91-0.68-32.87
			c-0.24-10.96-0.47-21.91-0.64-32.87c-0.27-18.83-0.51-37.62-0.68-56.45C0.1,60.92,0,44.2,0,27.48c0-3.66,0.58-7.29,0.98-10.96
			c0.31-2.68,1.83-4.75,4.21-5.77c3.66-1.56,7.43-3.12,11.26-4.04c10.75-2.54,21.71-3.8,32.73-4.44C64.86,1.39,80.57,0.75,96.24,0.2
			c7.12-0.24,14.25-0.03,21.34-0.03C117.57,0.17,117.57,0.1,117.57,0z M227.38,180.84c-0.07,0-0.14,0-0.2,0
			c0,3.12,0.17,6.24-0.03,9.33c-0.27,3.43,0.95,6.07,3.53,8.18c3.56,2.95,6.38,6.55,8.99,10.31c1.15,1.66,2.44,3.26,3.8,4.78
			c4.04,4.65,9.02,7.8,15.06,9.23c5.19,1.22,10.45,1.49,15.67,0.54c15.84-2.85,27.1-12.04,34.63-26.02
			c6-11.13,8.18-23.34,8.82-35.75c0.71-13.47-0.51-26.87-3.63-40.03c-2.48-10.52-5.94-20.62-11.77-29.82
			c-5.39-8.48-12.38-15.3-21.81-19.17c-9.26-3.8-18.59-4-27.75,0.47c-4.78,2.34-8.14,6.34-11.5,10.35
			c-2.48,2.92-5.26,5.56-8.01,8.21c-2.14,2-3.87,4.14-3.93,7.23c-0.34,16.38-0.68,32.77-1.02,49.15
			C227.92,158.82,227.65,169.85,227.38,180.84z"/>
	</g>
</g>
</svg>
