<?xml version="1.0" encoding="utf-8"?>
<!-- Generator: Adobe Illustrator 24.1.1, SVG Export Plug-In . SVG Version: 6.00 Build 0)  -->
<svg version="1.1" id="Layer_1" xmlns="http://www.w3.org/2000/svg" xmlns:xlink="http://www.w3.org/1999/xlink" x="0px" y="0px"
	 viewBox="0 0 203 392" style="enable-background:new 0 0 203 392;" xml:space="preserve">
<style type="text/css">
	.st0{fill:#FFFFFF;}
</style>
<desc>Created with Sketch.</desc>
<g>
	<path class="st0" d="M202.2,143.9c-0.4,0-0.5,0-0.5,0s0.1,1.2,0.1,1.7s0,193.8,0,209.8c0,16-8.2,25.4-13.3,29.5
		c-5.1,4.1-13.3,7-16.7,7.1c-2.8,0.1-1.3-3.4-10.3-4.1c0,0-110.3-0.3-114.9-0.3s-10.3,0.6-12.2,2.1s-1.9,2.6-4.9,2
		c-3-0.6-15-3.6-22.4-15c-7.4-11.4-6.1-31.8-6.1-34.9c0-3.1,0.1-206.2,0.1-206.2s0-0.1,0.1-0.3c0.1-0.1,0-0.1,0-0.1s-0.8,0.1-1-0.1
		c-0.3-0.3-0.4-0.6-0.4-1v258h203V142.8C203,143.7,202.6,143.9,202.2,143.9z"/>
	<path class="st0" d="M201.9,110.7c-0.2,0-0.3,0-0.3,0s0.2,1.9,0.1,2.4c0,0.4,0,1.5-0.3,1.7c0,0,0.7,0,0.8,0c0.1,0,0.7,0.5,0.7,1
		v-7.6c0,1.5-0.1,1.9-0.3,2.1S202.1,110.7,201.9,110.7z"/>
	<path class="st0" d="M0,0v91.1c0-1.1,1.3-0.9,1.3-0.9s0-0.8,0-1.4c0-0.6,0-28.6,0-36.4c0-7.8-0.4-20.2,1.6-26.9
		c2-6.6,8.7-25.4,36.6-25.4c27.8,0,53.8,0.1,53.8,0.1l67.2-0.1c0,0,14.6-1.4,26.1,6.1c11.5,7.5,15.1,21.4,15.1,29.3
		c0,7.9,0.1,16.6,0.1,16.6s-2.1,2.6-2.1,5.8s0,9.4,0,11.2c0,1.8,0.8,5.4,2.1,6.7c0,0,0,3.8,0,4.3c0,0.6,0.1,1.1-0.1,1.3
		c0,0,0.8,0,1.1,0.4c0.3,0.4,0.3,0.9,0.3,1.3V0H0z"/>
</g>
</svg>
