<?xml version="1.0" encoding="utf-8"?>
<!-- Generator: Adobe Illustrator 24.1.1, SVG Export Plug-In . SVG Version: 6.00 Build 0)  -->
<svg version="1.1" id="Layer_1" xmlns="http://www.w3.org/2000/svg" xmlns:xlink="http://www.w3.org/1999/xlink" x="0px" y="0px"
	 viewBox="0 0 195 393" style="enable-background:new 0 0 195 393;" xml:space="preserve">
<style type="text/css">
	.st0{fill:#FFFFFF;}
</style>
<desc>Created with Sketch.</desc>
<g>
	<path class="st0" d="M0,0v393h195V0H0z M191.5,69.4c0,2.2,0.9,4.2,2.5,5.8c0.2,0.2,0.4,0.5,0.4,0.8c0.1,1.3,0,2.7-0.7,3.9
		c-1.6,2.7-2.3,5.6-2.3,8.8c0.1,19.1,0.1,38.2,0.1,57.3c0,2.2,0.3,4.4,1.5,6.4c1.3,2.2,1.8,4.6,1.8,7.2c-0.2,6.4-0.1,12.7-0.1,19.1
		c0,34.5-0.1,69-0.1,103.5c0,25.5-0.1,50.9-0.2,76.4c0,5.3-0.9,10.5-2.8,15.5c-2.7,7-7.4,11.9-14.5,14.6c-4.6,1.8-9.5,2.9-14.4,3
		c-9,0.2-17.9,0.2-26.9,0.3c-5.9,0-11.9,0.1-17.8,0c-1.7,0-3.3-0.5-5-0.7c-0.8-0.1-1.5-0.2-2.3-0.2c-7.8-0.1-15.5-0.1-23.3-0.2
		c-1.6,0-3.3,0-4.9,0.1c-0.5,0-0.9,0-1.4,0.2c-2,0.8-4,0.9-6.1,0.9c-8.9-0.1-17.8-0.1-26.7-0.2c-5.4-0.1-10.9,0-16.3-0.3
		c-6.8-0.4-13.3-2-19.3-5.4c-4.6-2.6-7.4-6.7-9.2-11.4c-1.9-4.8-3-9.8-3.1-14.9c-0.2-6.4-0.2-12.8-0.2-19.2
		c-0.1-33.5-0.1-66.8,0-100.1c0,0-0.1,0-0.1,0s0,0,0.1,0c0-31.3,0-62.6,0-93.9c0-8,0-16,0-24c0-2,0.3-3.9,1.2-5.7
		c1.4-2.7,1.9-5.5,1.9-8.5c-0.1-7,0.1-14,0.1-21.1c0-1.8-0.4-3.6-1.1-5.2c-0.1-0.3-0.2-0.5-0.4-0.8c-1.4-2.5-1.8-5.2-1.7-8.1
		c0.1-14.2,0-28.3,0.3-42.5c0.1-7.5,2.2-14.6,7.1-20.6c3.3-4,7.5-6.4,12.3-8c5-1.7,10.2-2.1,15.5-2.1C52.7,0.2,70,0.2,87.3,0.2
		c15.7,0,31.5,0,47.2,0c9.4,0,18.8-0.1,28.1,0.1c6.6,0.2,13,1.7,18.8,5.1c5.4,3.2,8.8,8,10.6,14c1.3,4.3,2.1,8.8,2.5,13.3
		c0.2,3.1,0.3,6.2,0.3,9.3c0,0.4-0.2,0.9-0.5,1.2c-1.3,1.5-2.5,2.9-2.8,4.9c-0.1,0.4-0.1,0.7-0.1,1.1
		C191.4,55.9,191.4,62.7,191.5,69.4z"/>
</g>
</svg>
