<?xml version="1.0" encoding="UTF-8"?>
<svg width="203px" height="392px" viewBox="0 0 203 392" version="1.1" xmlns="http://www.w3.org/2000/svg" xmlns:xlink="http://www.w3.org/1999/xlink">
    <!-- Generator: Sketch 51.2 (57519) - http://www.bohemiancoding.com/sketch -->
    <title>Shape</title>
    <desc>Created with Sketch.</desc>
    <defs></defs>
    <g id="Page-1" stroke="none" stroke-width="1" fill="none" fill-rule="evenodd">
        <g id="Artboard" fill="#FFFFFF" fill-rule="nonzero">
            <path d="M93.2584621,0.242157971 L160.488228,0.109548127 C160.488228,0.109548127 175.038349,-1.32263819 186.543403,6.16981802 C198.048458,13.6622742 201.623101,27.520003 201.676058,35.4235497 C201.715776,43.3270964 201.808452,52.0263022 201.808452,52.0263022 C201.808452,52.0263022 199.703385,54.6121942 199.703385,57.8213524 C199.703385,61.0305107 199.703385,67.2631733 199.703385,69.0268843 C199.703385,70.7773342 200.49775,74.4241049 201.808452,75.7502034 C201.808452,75.7502034 201.808452,79.529584 201.808452,80.0998063 C201.808452,80.6700286 201.887889,81.173946 201.676058,81.4126438 C201.676058,81.4126438 202.470423,81.4524267 202.735212,81.8104733 C203,82.1685199 203,82.7254812 203,83.1233107 C203,83.5211403 203,106.68808 203,108.160049 C203,109.632019 202.933803,110.069631 202.735212,110.268546 C202.53662,110.467461 202.139438,110.666375 201.940847,110.666375 C201.742255,110.666375 201.676058,110.666375 201.676058,110.666375 C201.676058,110.666375 201.848171,112.61574 201.808452,113.040092 C201.768734,113.451182 201.781974,114.578366 201.543664,114.750759 C201.543664,114.750759 202.205635,114.750759 202.338029,114.750759 C202.470423,114.750759 203,115.254676 203,115.798376 C203,116.342077 203,141.962299 203,142.811002 C203,143.659705 202.563099,143.858619 202.205635,143.858619 C201.848171,143.858619 201.676058,143.858619 201.676058,143.858619 C201.676058,143.858619 201.808452,145.065369 201.808452,145.569286 C201.808452,146.073204 201.808452,339.338791 201.808452,355.35806 C201.808452,371.364069 193.586774,380.792629 188.516076,384.877012 C183.445379,388.961395 175.223701,391.878812 171.807931,391.99816 C168.974695,392.090987 170.497228,388.643131 161.547381,387.913777 C161.547381,387.913777 51.2100698,387.648558 46.6954282,387.648558 C42.1807865,387.648558 36.434879,388.21878 34.4622057,389.757054 C32.4895324,391.295328 32.5822083,392.342946 29.5900998,391.732941 C26.6112307,391.122935 14.5898389,388.125953 7.22872236,376.708245 C-0.145633601,365.290538 1.17830822,344.881883 1.17830822,341.792073 C1.17830822,338.689003 1.31070241,135.557243 1.31070241,135.557243 C1.31070241,135.557243 1.33718124,135.424633 1.44309659,135.292024 C1.53577252,135.159414 1.44309659,135.159414 1.44309659,135.159414 C1.44309659,135.159414 0.688449749,135.278763 0.397182547,135.026804 C0.105915346,134.774845 0,134.43006 0,133.979186 C0,133.528313 0,92.246868 0,91.1462063 C0,90.0588056 1.31070241,90.2179374 1.31070241,90.2179374 C1.31070241,90.2179374 1.31070241,89.3824954 1.31070241,88.7724901 C1.31070241,88.1624848 1.31070241,60.1818077 1.31070241,52.3976098 C1.31070241,44.6134119 0.913519859,32.1878695 2.87295376,25.5441163 C4.83238766,18.9003631 11.5977304,0.109548127 39.440227,0.109548127 C67.2827235,0.109548127 93.2584621,0.242157971 93.2584621,0.242157971 Z" id="Shape"></path>
        </g>
    </g>
</svg>