<?xml version="1.0" encoding="utf-8"?>
<!-- Generator: Adobe Illustrator 24.1.1, SVG Export Plug-In . SVG Version: 6.00 Build 0)  -->
<svg version="1.1" id="Layer_1" xmlns="http://www.w3.org/2000/svg" xmlns:xlink="http://www.w3.org/1999/xlink" x="0px" y="0px"
	 viewBox="0 0 348.87 429.98" style="enable-background:new 0 0 348.87 429.98;" xml:space="preserve">
<style type="text/css">
	.st0{fill:#487293;}
</style>
<g>
	<path class="st0" d="M138.17,0.61c22.33,0,44.67,0,67,0c0.56,3.78,0.96,7.59,1.77,11.32c0.36,1.68,1.14,3.86,2.44,4.63
		c5.68,3.39,11.41,6.85,17.5,9.37c20.87,8.63,41.91,16.85,62.86,25.29c1.36,0.55,2.53,1.57,3.79,2.37
		c14.51,9.22,23.06,23,28.34,38.76c4.9,14.63,8.41,29.73,13.05,44.46c3.53,11.22,7.86,22.19,11.84,33.27
		c1.67,4.63-0.09,7.75-4.4,9.51c-13.4,5.48-26.68,11.31-40.31,16.13c-8.17,2.89-17.17,6.27-24.47-3.77
		c-0.39,1.82-0.74,2.73-0.76,3.64c-0.71,32.13-1.91,64.25-1.95,96.38c-0.06,42.09-0.45,84.21,3.03,126.21
		c0.45,5.38-2.08,8.37-6.49,9.79c-3.39,1.09-7.19,1.54-10.76,1.36c-6.62-0.33-13.2-1.47-19.82-2.03c-11.59-0.98-23.22-1.64-34.8-2.7
		c-13.73-1.25-27.41-3.38-41.16-3.99c-9.9-0.44-19.88,1.5-29.82,1.49c-25.13-0.02-50.26-0.58-75.4-0.84
		c-3.32-0.04-4.54-1.64-4.23-4.67c0.62-5.94,1.31-11.88,2.05-17.81c2.5-20.1,4.85-40.22,7.61-60.28c3.85-27.97,9.4-55.77,7.44-84.26
		c-1.37-19.92-2.58-39.85-3.87-59.78c-0.18-2.7-0.44-5.39-0.66-8.09c-0.34-0.4-0.68-0.81-1.02-1.21c-3.29,8.86-8.86,5.03-13.76,3.65
		c-15.21-4.26-30.35-8.73-45.52-13.13c-2.01-0.58-3.98-1.27-6.22-1.98c0.56-1.74,0.98-2.97,1.35-4.21
		c3.88-13.38,8.97-26.56,11.34-40.21c3.67-21.13,9.78-41.11,21.35-59.16c7.06-11.02,14.85-21.56,29.72-22.53
		c0.79-0.05,1.57-0.53,2.33-0.88c9.32-4.41,18.75-8.62,27.93-13.3c9-4.59,17.71-9.72,26.61-14.51
		C129.74,14.78,137.8,11.1,138.17,0.61z"/>
</g>
</svg>
