<?xml version="1.0" encoding="utf-8"?>
<!-- Generator: Adobe Illustrator 24.0.1, SVG Export Plug-In . SVG Version: 6.00 Build 0)  -->
<svg version="1.1" id="Capa_2" xmlns="http://www.w3.org/2000/svg" xmlns:xlink="http://www.w3.org/1999/xlink" x="0px" y="0px"
	 viewBox="0 0 122.6 85.6" style="enable-background:new 0 0 122.6 85.6;" xml:space="preserve">
<style type="text/css">
	.st0{fill:#096E31;}
	.st1{fill:#FFED00;}
	.st2{fill:#FFEC00;}
	.st3{fill:#E63425;}
</style>
<g>
	<path class="st0" d="M120.1,58.7l-0.9-1.3c0,0,0,0,0-0.1c0.1-0.5,0.1-0.8,0.1-1.2c0-1.5-0.6-2.8-1.7-3.8c-1-0.9-2.3-1.4-3.7-1.4
		c-1.3,0-3.8,0.5-5.5,3.7c0,0,0,0,0,0l-0.1,0.2c-0.1-0.1-0.1-0.1-0.2-0.2c-1-1-2.4-1.5-3.9-1.5c-0.8,0-1.5,0.1-2.2,0.4
		c-1-0.4-2-0.6-3.2-0.6c-1.6,0-3.7,0.4-5.8,1.9c-0.2-0.2-0.5-0.5-0.8-0.7c10.2-4.2,17.4-14.2,17.4-25.9c0-7.6-3-14.4-7.9-19.5
		c0.2-1.2,0-2.5-1.1-3.5l0,0c-0.3-0.3-1.1-0.9-2.3-0.9c-0.3,0-0.6,0-0.9,0.1l-1-0.1c-4.3-2.7-9.3-4.2-14.7-4.2
		C67,0.3,54.9,11.7,53.9,26.2c-0.8-0.9-2-1.4-3.3-1.4c-1.6,0-3,0.7-4.1,1.9c-0.8,0.9-1.1,1.8-1.2,2.6c-0.7-0.2-1.5-0.3-2.3-0.3
		c-0.8,0-1.5,0.1-2.2,0.3c-0.4-1-1-1.7-1.5-2.2c0,0,0,0,0,0c-1.2-1.2-2.6-1.9-4.2-2.1c-0.7-0.1-1.6-0.2-2.5-0.2c-2,0-2.5,0-2.8,0
		l-2.5,0.1c-1.4,0-2.6,0.8-3.3,2c-0.2-2.1-1.9-3.6-4-3.7c0,0,0,0,0,0c-0.4,0-0.8,0.1-1.1,0.2c-0.1,0-0.3,0.1-0.5,0.1
		c-0.3,0.1-0.6,0.1-0.7,0.1h-0.9c-1.1,0-2,0.4-2.7,1.1H5.3c-1.2,0-2.3,0.5-3,1.4h0c0,0,0,0,0,0c0,0,0,0,0,0c0,0,0,0,0,0c0,0,0,0,0,0
		c0,0,0,0,0,0c0,0,0,0,0,0c0,0,0,0,0,0c0,0,0,0,0,0c0,0,0,0,0,0c-0.6,0.7-0.9,1.6-0.9,2.5V29c0,1.4,0.7,2.6,1.7,3.3
		c0,0.2,0,0.5,0,0.8c0,1.2,0,1.8,0,1.9c0,0.1,0,1,0,2.9c-1.1,0.7-1.8,1.9-1.8,3.3v0.4c0,2.2,1.8,3.9,3.9,3.9h7.3
		c-0.5,0.4-1,0.7-1.4,1.1c0,0,0,0,0,0c-1.3,1.2-2.5,2.5-3.5,3.8H6.8c-1.7,0-3.2,0.6-4.4,1.7c-1.3,1.2-2,2.8-2,4.5
		c0,1.8,0.8,3.3,2,4.3c-0.6,1.9-0.8,3.7-0.8,5.3c0,2.4,0.6,4.5,1.7,6.4c1.2,2,2.8,3.5,4.9,4.4c1.5,0.7,3.3,1,5.5,1h9.7
		c1.9,0,3.4-0.5,4.7-1.5c1-0.8,1.7-1.9,2-3.1c1.2,0,2.2-0.2,3.1-0.4c0.7-0.2,1.4-0.5,2.1-0.9c0,0,0.1,0.1,0.1,0.1
		c1,0.9,2.3,1.4,3.7,1.4c0.8,0,2.5-0.2,4-1.4c1,0.9,2.3,1.4,3.7,1.4c0.9,0,2.9-0.2,4.5-1.9c0.1,0.1,0.1,0.1,0.2,0.2
		c1.2,1,2.6,1.5,4.3,1.5h0.1L54.5,77c0,0,0,0,0,0c-0.5,1.2-0.7,2.1-0.7,3c0,1.5,0.6,2.8,1.7,3.9c1,1,2.3,1.5,3.7,1.5
		c1.3,0,4.5-0.4,6.2-4.6l2.9-7.1c0.5,0,1,0.1,1.6,0.1c1.5,0,2.8-0.2,3.8-0.5c1.1-0.4,2.2-1.1,3.2-2.1c0.4-0.4,0.8-0.9,1.2-1.4
		c0.3,0.6,0.7,1.1,1.1,1.6c1.4,1.6,3.4,2.4,5.6,2.4h3.3c1.5,0,2.8-0.3,3.8-1c1.1,0.6,2.4,1,3.9,1h1.9c0.7,0,1.5-0.1,2.2-0.4
		c0.7,0.2,1.4,0.4,2.2,0.4h2.1c1,0,1.9-0.1,2.7-0.4c0.7,0.3,1.6,0.4,2.6,0.4h3.5c2.5,0,4.7-0.8,6.5-2.4c1.9-1.7,2.8-3.9,2.8-6.4
		C122.3,62.8,121.6,60.7,120.1,58.7z M19.9,66.6h-5.1c-0.5,0-0.8,0-1-0.1c0-0.2,0-0.4,0-0.7c0-1.1,0.3-2.3,0.8-3.6h2
		c1.2,0,2.4-0.1,3.4-0.2c-0.2,0.8-0.3,1.7-0.3,2.6C19.7,65.3,19.8,65.9,19.9,66.6z M24.9,37.9c-0.2,0.1-0.4,0.3-0.6,0.5
		c-0.2-0.2-0.3-0.3-0.5-0.4c0-1.4,0-3.9,0.1-4.9c0-0.6,0-1.3,0-2c0.3,0.5,0.6,0.9,1,1.2V37.9z M68,52.6c-0.2,0.1-0.5,0.1-0.7,0.1
		c-0.9-0.1-1.6-0.4-2.1-1c-0.3-0.4-0.5-0.9-0.6-1.4C65.6,51.1,66.7,51.9,68,52.6z M62.9,56.4c-0.1-0.2-0.3-0.4-0.4-0.6
		c0.1-0.1,0.2-0.2,0.3-0.3c0,0,0,0,0,0c0.8-0.9,1.3-2,1.4-3.2c0,0,0,0,0,0c0.5,0.6,1.1,1,1.8,1.2C64.7,54.1,63.6,55.1,62.9,56.4z"/>
	<g>
		<path class="st1" d="M16.1,40c-0.3,0.5-0.6,1-0.9,1.6c-0.1,0.1-0.1,0.1-0.2,0.1H5.3c-0.1,0-0.1,0-0.1-0.1v-0.4
			c0-0.1,0-0.1,0.1-0.1h1.5c0.1,0,0.1,0,0.2,0c0,0,0-0.1,0-0.2c0-0.1,0-1,0-2.9c0-1.9,0-2.9,0-2.9c0-0.1,0-0.7,0-1.9
			c0-1.2,0-1.9,0-1.9c0-1.3-0.1-2-0.4-2H5.3c-0.1,0-0.1,0-0.1-0.1v-0.4c0,0,0-0.1,0-0.1c0,0,0,0,0.1,0h9.2c0.1,0,0.3,0,0.5,0
			c0.2,0,0.3,0,0.3,0c0.1,0,0.1,0,0.1,0.1c-0.1,0.4-0.3,0.9-0.4,1.5c-0.1,0.1-0.1,0.2-0.2,0.2c0,0-0.1-0.1-0.2-0.2
			c-0.3-0.3-0.7-0.4-1.2-0.5c-1.3-0.2-2.8-0.4-4.2-0.4c-0.1,0-0.2,0-0.2,0.1c0,2.2,0,3.8,0,4.8c0,0.1,0.1,0.2,0.2,0.2h4.3
			c0.1,0,0.1-0.1,0.2-0.2c0-0.3,0.1-0.7,0.2-1.1c0-0.1,0-0.2,0.1-0.2h0.4c0.1,0,0.1,0.1,0.1,0.2c0,0,0,0.3,0,0.8c0,0.5,0,0.8,0,0.9
			c0,0.1,0,0.4,0,1c0,0.6,0,0.9,0,0.9c0,0.1,0,0.2-0.1,0.2h-0.4c-0.1,0-0.1,0-0.1-0.1c0-0.3,0-0.8-0.1-1.5c0-0.1-0.1-0.2-0.2-0.2
			c-0.1,0-0.8,0-2.2,0c-1.4,0-2.1,0-2.1,0C9,34.9,9,35,9,35.1v3.7c0,1.5,0.2,2.2,0.5,2.2c2.8,0,4.8-0.3,6.1-1
			c0.3-0.2,0.5-0.2,0.5-0.2C16,39.8,16.1,39.9,16.1,40C16.1,39.9,16.1,40,16.1,40z"/>
		<path class="st1" d="M21.6,41.6C21.6,41.7,21.6,41.7,21.6,41.6l-5.1,0.1c-0.1,0-0.1,0-0.1-0.1v-0.4c0-0.1,0-0.1,0.1-0.1h1.4
			c0.1,0,0.2-0.1,0.2-0.2V30.2c0-1.5-0.1-2.2-0.4-2.2h-1c-0.1,0-0.1,0-0.1-0.1v-0.3c0-0.1,0-0.1,0.1-0.1h0.9c0.5,0,1.1-0.1,1.6-0.2
			c0.5-0.1,0.7-0.2,0.7-0.2c0.1,0,0.2,0.1,0.2,0.3c0,0,0,1.9-0.1,5.8c0,3.8-0.1,5.8-0.1,6c0,1.4,0.1,2.1,0.4,2.1h1.2
			c0.1,0,0.1,0,0.1,0.1V41.6z"/>
		<path class="st1" d="M37.6,32.4c0,1-0.4,1.8-1.1,2.6c-0.8,0.8-2,1.2-3.5,1.2c-0.7,0-1.4-0.1-2.1-0.3c-0.1,0-0.1,0-0.1,0.1v2.8
			c0,1.5,0.1,2.2,0.4,2.2h1.5c0.1,0,0.1,0,0.1,0.1v0.4c0,0.1,0,0.1-0.1,0.1h-5.8c-0.1,0-0.1,0-0.1-0.1v-0.4c0-0.1,0-0.1,0.1-0.1h1.4
			c0.1,0,0.2-0.1,0.2-0.2V31c0-1.2-0.1-1.8-0.2-1.8h-1.1c-0.1,0-0.1,0-0.1-0.1v-0.5c0-0.1,0-0.1,0.1-0.1l2.6-0.1c0.3,0,1.2,0,2.6,0
			c0.8,0,1.4,0,1.9,0.1c0.8,0.1,1.5,0.5,2.2,1.1C37.2,30.4,37.6,31.3,37.6,32.4z M35.5,32.5c0-0.8-0.3-1.5-1-2.3
			c-0.6-0.7-1.7-1.1-3.1-1.1c-0.2,0-0.4,0-0.4,0c0,0-0.1,0.1-0.1,0.2c0,0.4-0.1,1.4-0.1,2.9c0,0.1,0,0.5,0,1.3c0,0.8,0,1.3,0,1.3
			c0,0.1,0,0.1,0.1,0.2c0.4,0.1,1,0.2,1.5,0.2c1,0,1.7-0.2,2.2-0.7C35.3,34.2,35.5,33.5,35.5,32.5z"/>
		<path class="st1" d="M47.4,41c0,0,0,0.1-0.1,0.1c-0.3,0.3-0.6,0.6-0.9,0.7c-0.1,0-0.1,0.1-0.2,0.1c-0.5,0-1-0.2-1.5-0.5
			c-0.5-0.4-0.9-0.8-1-1.3c0-0.1-0.1-0.1-0.2,0c-0.2,0.4-0.5,0.7-0.9,1c-0.6,0.4-1.2,0.7-1.8,0.7c-0.5,0-0.9-0.1-1.3-0.3
			c-0.4-0.3-0.7-0.7-0.7-1.2c0-0.7,0.2-1.2,0.6-1.7c0.4-0.5,1-0.9,1.7-1.1c0.7-0.3,1.5-0.5,2.4-0.7c0.1,0,0.1-0.1,0.1-0.2
			c0-1,0-1.6,0-2c0-0.3-0.2-0.6-0.4-0.8c-0.3-0.2-0.6-0.3-1.1-0.3s-0.8,0.1-1.1,0.3c-0.1,0.1-0.2,0.2-0.2,0.4v0.4
			c0,0.3-0.1,0.6-0.2,0.8c-0.2,0.4-0.6,0.6-1.1,0.6c-0.4,0-0.6-0.2-0.6-0.5c0-0.3,0.2-0.7,0.5-1.1c0.3-0.4,0.7-0.8,1.1-1
			c0.7-0.4,1.5-0.6,2.4-0.6c0.8,0,1.5,0.2,2,0.6c0.2,0.1,0.3,0.4,0.4,0.7c0.1,0.3,0.1,0.6,0.1,0.9l-0.2,3.8c0,0.7,0.2,1.2,0.6,1.6
			c0.4,0.3,0.8,0.5,1.3,0.6C47.4,41,47.4,41,47.4,41z M43.6,37.5c0-0.1-0.1-0.2-0.2-0.2c-0.4,0-0.9,0.1-1.4,0.4
			c-0.9,0.5-1.4,1.1-1.4,1.9c0,0.5,0.1,0.8,0.4,1c0.2,0.2,0.5,0.3,0.8,0.2c0.5-0.1,1-0.4,1.4-1c0.1-0.2,0.2-0.3,0.2-0.5
			C43.5,38.6,43.6,38,43.6,37.5z"/>
		<path class="st1" d="M52.8,41.6C52.8,41.7,52.8,41.7,52.8,41.6l-4.9,0.1c0,0-0.1,0-0.1,0c0,0,0,0,0-0.1v-0.4c0-0.1,0-0.1,0.1-0.1
			h1.2c0.1,0,0.2-0.1,0.2-0.2c0-2.9,0.1-4.9,0.1-6.1c0-1-0.1-1.5-0.4-1.5h-1.1c-0.1,0-0.1,0-0.1-0.1v-0.5c0-0.1,0-0.1,0.1-0.1h1.3
			c0.4,0,0.8,0,1,0c0.6-0.1,1-0.1,1-0.1c0.1,0,0.1,0.1,0.1,0.2c0,0,0,0.3,0,0.9c0,0.5,0,0.8,0,0.9c-0.1,0.5-0.1,2-0.1,4.6
			c0,1.3,0.1,2,0.4,2h1.2c0.1,0,0.1,0,0.1,0.1V41.6z M51.3,29.3c0,0.4-0.2,0.8-0.6,1.1c-0.3,0.3-0.6,0.4-0.9,0.4
			c-0.5,0-0.8-0.3-0.8-0.8c0-0.3,0.1-0.6,0.4-0.9c0.3-0.4,0.7-0.5,1.2-0.5C51.1,28.6,51.3,28.9,51.3,29.3z"/>
		<path class="st1" d="M60.8,39.1c0,0.7-0.2,1.3-0.7,1.8c-0.6,0.6-1.5,0.9-2.7,0.9c-1.4,0-2.5-0.3-3.4-1c-0.1-0.1-0.1-0.2-0.1-0.4
			c0-0.1,0-0.4,0-1c0-0.6,0-0.9,0-0.9c0-0.1,0.1-0.2,0.3-0.2c0.2,0,0.2,0.1,0.3,0.2c0.1,0.3,0.2,0.6,0.2,0.8
			c0.2,0.6,0.5,1.1,0.9,1.5c0.1,0.1,0.2,0.2,0.3,0.2c0.4,0.1,0.9,0.2,1.6,0.2c0.7,0,1.3-0.2,1.6-0.5c0.3-0.3,0.5-0.7,0.5-1.2
			c0-0.3-0.1-0.5-0.4-0.6c-0.4-0.3-1-0.5-1.6-0.7c-0.7-0.2-1.2-0.4-1.5-0.6c-0.7-0.4-1.2-0.7-1.4-1c-0.3-0.4-0.5-1-0.5-1.7
			c0-0.6,0.2-1.1,0.7-1.6c0.7-0.6,1.5-0.8,2.6-0.8c1.3,0,2.3,0.3,3,0.9c0.1,0,0.1,0.1,0.1,0.3v1.5c0,0.2,0,0.2-0.1,0.2
			c-0.2,0-0.3,0-0.4-0.1c-0.1-0.3-0.2-0.5-0.3-0.8c-0.2-0.4-0.4-0.6-0.5-0.8c0,0-0.1-0.1-0.2-0.2c-0.4-0.2-0.8-0.3-1.4-0.3
			c-0.5,0-0.9,0.1-1.2,0.3c-0.4,0.2-0.6,0.5-0.6,1c0,0.7,0.4,1.2,1.4,1.5c0.4,0.1,0.9,0.3,1.6,0.6c0.7,0.2,1.2,0.5,1.6,0.7
			C60.5,37.7,60.8,38.3,60.8,39.1z"/>
	</g>
	<g>
		<path class="st1" d="M36.5,52.6c0,0.1,0,0.2-0.1,0.2c-0.4,0.1-0.9,0.3-1.5,0.5c-0.4,0.2-0.7,0.3-0.9,0.3c-0.1,0-0.1,0-0.1-0.1V53
			c0-0.3,0-0.5,0-0.4c0-0.1-0.1-0.1-0.1-0.1c-0.2,0.2-0.5,0.4-0.9,0.6c-0.3,0.2-0.8,0.3-1.3,0.3c-0.3,0-0.7-0.1-1-0.3
			c-0.4-0.2-0.7-0.5-0.8-0.9c-0.3-0.5-0.4-1.1-0.4-1.8c0-1,0.3-1.8,0.9-2.4c0.5-0.5,1.1-0.7,2-0.7c0.4,0,1,0.2,1.5,0.5
			c0.1,0,0.1,0,0.1-0.1c0,0,0-0.4,0-1.2c0-0.7,0-1.1,0-1.2c0-0.8-0.1-1.1-0.3-1.1h-0.8c0,0-0.1,0-0.1-0.1v-0.2c0-0.1,0-0.1,0.1-0.1
			H33c0.6,0,1.1-0.1,1.5-0.2c0.4-0.1,0.6-0.2,0.6-0.2c0.1,0,0.1,0.1,0.1,0.2c0,0,0,0.3,0,0.8c0,0.5,0,0.9,0,1v6
			c0,0.8,0.1,1.2,0.4,1.1c0.2-0.1,0.3-0.1,0.6-0.2c0.1-0.1,0.2-0.1,0.3-0.1C36.4,52.4,36.5,52.5,36.5,52.6z M33.9,51.9
			c0,0,0-0.2,0-0.7c0-0.5,0-1,0-1.3c0-0.6,0-1.1-0.1-1.3c0-0.1-0.1-0.2-0.2-0.3c-0.4-0.2-0.9-0.4-1.4-0.4c-0.2,0-0.5,0.1-0.7,0.2
			c-0.2,0.1-0.4,0.3-0.5,0.4c-0.3,0.4-0.4,1-0.4,1.8c0,0.7,0.1,1.3,0.4,1.7c0.3,0.4,0.7,0.6,1.3,0.6c0.6,0,1.1-0.2,1.5-0.5
			C33.9,52.2,33.9,52.1,33.9,51.9z"/>
		<path class="st1" d="M42.4,52.4C42.4,52.4,42.4,52.4,42.4,52.4c-0.3,0.4-0.7,0.6-1.2,0.8c-0.5,0.2-1,0.3-1.5,0.3
			c-0.8,0-1.4-0.2-1.9-0.7c-0.5-0.5-0.8-1.2-0.9-2c0-0.4,0-0.9,0.1-1.3c0.2-0.6,0.4-1.1,0.8-1.5c0.4-0.4,0.9-0.6,1.5-0.6
			c0.5,0,0.9,0.1,1.4,0.3c0.4,0.1,0.7,0.4,1.1,0.7c0.2,0.2,0.4,0.4,0.5,0.6c0,0,0.1,0.1,0.1,0.2c0,0.1,0,0.1-0.1,0.1
			c-0.1,0-0.3,0.1-0.8,0.2c-0.5,0.1-0.8,0.2-0.9,0.2c-0.3,0-0.5,0.1-0.8,0.1c-0.5,0.1-0.8,0.1-1,0.1c0,0-0.1,0-0.3,0
			c-0.2,0-0.2,0-0.3,0c0,0-0.1,0.1-0.1,0.3c0,0.8,0.3,1.5,0.7,2c0.1,0.2,0.4,0.3,0.8,0.4c0.3,0.1,0.6,0.1,0.9,0.1
			c0.5,0,0.9-0.1,1.1-0.2c0.2-0.1,0.3-0.2,0.4-0.3c0,0,0,0,0.1,0C42.3,52.2,42.3,52.3,42.4,52.4C42.4,52.4,42.4,52.4,42.4,52.4z
			 M40.9,49.1c0,0,0-0.1-0.1-0.2c-0.1-0.2-0.2-0.3-0.2-0.3c-0.1-0.1-0.2-0.3-0.4-0.4c-0.3-0.2-0.6-0.3-0.9-0.3
			c-0.3,0-0.5,0.1-0.7,0.4c-0.1,0.1-0.1,0.3-0.2,0.6c-0.1,0.3-0.1,0.5-0.1,0.6c0,0.1,0,0.1,0.1,0.1c0.2,0,0.5,0,0.9-0.1
			c0.1,0,0.4-0.1,0.8-0.1c0.4-0.1,0.6-0.1,0.8-0.2C40.9,49.2,40.9,49.2,40.9,49.1z"/>
		<path class="st1" d="M49.2,53.4C49.2,53.4,49.2,53.4,49.2,53.4l-3.4,0.1c-0.1,0-0.1,0-0.1-0.1v-0.2c0-0.1,0-0.1,0.1-0.1h0.9
			c0.1,0,0.1,0,0.1-0.1v-7.1c0-1-0.1-1.5-0.3-1.5h-0.7c-0.1,0-0.1,0-0.1-0.1v-0.2c0-0.1,0-0.1,0.1-0.1h0.6c0.3,0,0.7,0,1.1-0.1
			c0.3-0.1,0.5-0.1,0.5-0.1c0.1,0,0.1,0.1,0.1,0.2c0,0,0,1.3,0,3.8c0,2.5,0,3.8,0,3.9c0,0.9,0.1,1.4,0.3,1.4h0.8c0,0,0.1,0,0.1,0.1
			V53.4z"/>
		<path class="st1" d="M55.4,53C55.4,53,55.3,53,55.4,53c-0.3,0.3-0.5,0.5-0.7,0.6c0,0-0.1,0-0.1,0c-0.3,0-0.6-0.1-1-0.4
			c-0.3-0.2-0.6-0.5-0.7-0.8c0-0.1-0.1-0.1-0.1,0c-0.2,0.3-0.4,0.5-0.6,0.7c-0.4,0.3-0.8,0.4-1.2,0.4c-0.3,0-0.6-0.1-0.9-0.2
			c-0.3-0.2-0.4-0.4-0.4-0.8c0-0.4,0.1-0.8,0.4-1.1c0.3-0.3,0.6-0.6,1.1-0.7c0.5-0.2,1-0.3,1.6-0.5c0,0,0.1-0.1,0.1-0.1
			c0-0.6,0-1.1,0-1.3c0-0.2-0.1-0.4-0.3-0.5C52.4,48,52.2,48,51.9,48c-0.3,0-0.5,0.1-0.7,0.2c-0.1,0.1-0.1,0.1-0.1,0.3v0.3
			c0,0.2,0,0.4-0.1,0.6c-0.1,0.3-0.4,0.4-0.7,0.4c-0.3,0-0.4-0.1-0.4-0.3c0-0.2,0.1-0.4,0.3-0.7c0.2-0.3,0.5-0.5,0.7-0.7
			c0.4-0.2,1-0.4,1.6-0.4c0.5,0,1,0.1,1.3,0.4c0.1,0.1,0.2,0.3,0.3,0.5c0.1,0.2,0.1,0.4,0.1,0.6L54,51.5c0,0.5,0.1,0.8,0.4,1
			c0.2,0.2,0.5,0.3,0.9,0.4C55.3,52.9,55.4,53,55.4,53z M52.9,50.6c0-0.1,0-0.1-0.1-0.1c-0.3,0-0.6,0.1-0.9,0.3
			c-0.6,0.3-0.9,0.7-0.9,1.2c0,0.3,0.1,0.5,0.2,0.7c0.2,0.1,0.3,0.2,0.5,0.2c0.3,0,0.7-0.3,0.9-0.7c0.1-0.1,0.1-0.2,0.1-0.4
			C52.8,51.4,52.9,51,52.9,50.6z"/>
		<path class="st1" d="M60.4,51.7c0,0.4-0.2,0.8-0.5,1.2c-0.4,0.4-1,0.6-1.8,0.6c-0.9,0-1.7-0.2-2.3-0.7c-0.1-0.1-0.1-0.2-0.1-0.3
			c0,0,0-0.3,0-0.6c0-0.4,0-0.6,0-0.6c0-0.1,0.1-0.1,0.2-0.1c0.1,0,0.2,0,0.2,0.1c0.1,0.2,0.1,0.4,0.2,0.5c0.2,0.4,0.4,0.7,0.6,1
			c0.1,0.1,0.1,0.1,0.2,0.1c0.3,0.1,0.6,0.1,1,0.1c0.5,0,0.8-0.1,1-0.3c0.2-0.2,0.3-0.4,0.3-0.8c0-0.2-0.1-0.3-0.3-0.4
			c-0.3-0.2-0.6-0.3-1.1-0.4c-0.4-0.1-0.8-0.3-1-0.4c-0.5-0.2-0.8-0.4-0.9-0.6c-0.2-0.3-0.3-0.6-0.3-1.1c0-0.4,0.1-0.7,0.4-1
			c0.4-0.4,1-0.6,1.7-0.6c0.8,0,1.5,0.2,1.9,0.6c0,0,0.1,0.1,0.1,0.2v1c0,0.1,0,0.2-0.1,0.2c-0.1,0-0.2,0-0.2-0.1
			c-0.1-0.2-0.2-0.3-0.2-0.5c-0.1-0.2-0.2-0.4-0.4-0.5c0,0-0.1-0.1-0.1-0.1c-0.2-0.1-0.6-0.2-0.9-0.2c-0.3,0-0.6,0.1-0.8,0.2
			c-0.2,0.1-0.4,0.3-0.4,0.6c0,0.5,0.3,0.8,0.9,1c0.3,0.1,0.6,0.2,1,0.4c0.5,0.1,0.8,0.3,1,0.5C60.2,50.8,60.4,51.2,60.4,51.7z"/>
	</g>
	<g>
		<path class="st1" d="M12.2,58.4C10.7,61,10,63.5,10,65.8c0,1.6,0.4,2.8,1.1,3.5c0.7,0.7,2,1.1,3.7,1.1h9.3c1.5,0,2.3,0.5,2.3,1.6
			c0,0.8-0.3,1.4-0.8,1.8c-0.5,0.4-1.3,0.6-2.3,0.6h-9.7c-1.6,0-2.9-0.2-3.9-0.7c-1.4-0.6-2.4-1.6-3.2-2.9c-0.8-1.3-1.2-2.8-1.2-4.5
			c0-2.2,0.7-4.9,2-8H6.5H6c-1.3,0-1.9-0.5-1.9-1.6c0-0.7,0.3-1.2,0.8-1.7c0.5-0.5,1.1-0.7,1.9-0.7h0.5h2.4c1-1.7,2.4-3.3,4.1-4.8
			c2.2-2,4.5-2.9,7-2.9c1.7,0,3,0.5,4.1,1.5c1.1,1,1.6,2.3,1.6,3.9c0,2.2-1,4-3.1,5.2c-1.4,0.8-3.7,1.2-6.8,1.2H12.2z M14.7,54.3H18
			c2.8,0,4.2-0.7,4.2-2.2c0-0.5-0.2-0.9-0.5-1.1c-0.4-0.3-0.8-0.4-1.4-0.4c-0.9,0-1.8,0.3-2.8,1C16.4,52.3,15.5,53.2,14.7,54.3z"/>
		<path class="st1" d="M31.3,56.7c1.6,0,3,0.5,4,1.5c1,1,1.6,2.3,1.6,3.9c0,1.2-0.3,2.4-0.8,3.6c-0.5,1.2-1.3,2.1-2.1,2.8
			c-0.6,0.5-1.2,0.8-1.8,0.9c-0.6,0.2-1.5,0.3-2.6,0.3c-1.8,0-3.1-0.2-3.7-0.7c-1.5-1-2.2-2.5-2.2-4.6c0-2.1,0.8-4,2.3-5.5
			C27.3,57.5,29.2,56.7,31.3,56.7z M30.8,60.3c-0.8,0-1.6,0.4-2.3,1.2c-0.7,0.8-1,1.7-1,2.7c0,1.3,0.7,1.9,2.2,1.9
			c0.8,0,1.5-0.3,2-0.8c0.8-0.9,1.1-1.8,1.1-3c0-0.6-0.2-1.2-0.6-1.5C31.9,60.5,31.4,60.3,30.8,60.3z"/>
		<path class="st1" d="M57.9,66.1h2c1.4,0,2.1,0.5,2.1,1.5c0,0.7-0.2,1.2-0.7,1.6c-0.5,0.4-1.2,0.6-2.1,0.6h-3.4
			c-0.7,0-1.3-0.2-1.8-0.6c-0.5-0.4-0.7-0.9-0.7-1.5c0-0.4,0.2-1,0.5-1.8l1.6-3.8c0.1-0.2,0.1-0.4,0.1-0.6c0-0.7-0.4-1.1-1.1-1.1
			c-0.6,0-1.1,0.3-1.7,0.8c-0.6,0.5-1,1.2-1.3,2l-1.9,4.6c-0.6,1.5-1.5,2.2-2.7,2.2c-0.5,0-0.8-0.2-1.2-0.5
			c-0.3-0.3-0.5-0.7-0.5-1.1c0-0.3,0.1-0.7,0.3-1.1l0.2-0.5l1.9-4.7c0.2-0.4,0.3-0.7,0.3-1c0-0.2-0.1-0.5-0.3-0.6
			c-0.2-0.2-0.5-0.3-0.8-0.3c-1.2,0-2.2,0.9-2.9,2.6l-2,4.8C41.1,69.3,40.2,70,39,70c-0.5,0-0.9-0.1-1.2-0.4
			c-0.3-0.3-0.5-0.7-0.5-1.1c0-0.3,0.1-0.7,0.3-1.1l0.2-0.5l3.3-8.2c0.5-1.2,1.2-1.7,2.1-1.7c1,0,1.6,0.5,1.8,1.4
			c0.8-0.6,1.4-1.1,1.9-1.3c0.5-0.2,1.1-0.3,1.8-0.3c1.5,0,2.6,0.7,3.4,2c1.3-1.3,2.7-2,4.2-2c1.1,0,2,0.3,2.7,0.9
			c0.7,0.6,1.1,1.4,1.1,2.3c0,0.6-0.1,1.2-0.4,1.8L57.9,66.1z"/>
		<path class="st1" d="M66.3,68.5l-4.4,10.8c-0.6,1.5-1.5,2.2-2.6,2.2c-0.4,0-0.8-0.1-1.1-0.4c-0.3-0.3-0.5-0.7-0.5-1.1
			c0-0.3,0.1-0.9,0.4-1.6l8.1-19.9c0.4-1,1.1-1.5,2.1-1.5c0.7,0,1.3,0.3,1.7,1c0.8-0.8,1.7-1.2,2.9-1.2c1.2,0,2.1,0.4,2.8,1.3
			c0.7,0.9,1.1,2.1,1.1,3.5c0,2.8-0.9,5-2.6,6.7c-0.6,0.6-1.1,1-1.7,1.2c-0.6,0.2-1.4,0.3-2.5,0.3c-1.1,0-1.9-0.1-2.4-0.2
			C67.2,69.4,66.7,69.1,66.3,68.5z M67.6,65.1c0.3,0.5,0.5,0.8,0.8,1c0.3,0.1,0.7,0.2,1.2,0.2c0.8,0,1.4-0.3,1.9-0.9
			c0.9-1.2,1.4-2.4,1.4-3.7c0-1.1-0.5-1.6-1.5-1.6c-1.1,0-1.9,0.7-2.4,2c-0.1,0.1-0.1,0.3-0.1,0.4L67.6,65.1z"/>
		<path class="st1" d="M81.8,60.6l-0.6,1.4c-0.5,1.3-1.2,1.9-2,1.9c-0.5,0-0.9-0.2-1.3-0.5c-0.3-0.3-0.5-0.7-0.5-1.1
			c0-0.3,0.1-0.7,0.4-1.3l1.9-4.7c0.5-1.1,1.1-1.7,1.9-1.7c0.8,0,1.3,0.4,1.5,1.2l0.1,0.5c0.1,0.3,0.2,0.4,0.3,0.5
			c0.1,0.1,0.5,0.1,1,0.1h3.9c1.5,0,2.2,0.5,2.2,1.5c0,1.4-0.9,2.1-2.8,2.1l-0.2,0.2c-1.8,1.7-2.7,3-2.7,3.9c0,0.9,0.5,1.4,1.5,1.4
			h2.1c1.4,0,2.1,0.5,2.1,1.5c0,0.7-0.2,1.2-0.7,1.6c-0.5,0.4-1.2,0.6-2.1,0.6h-3.3c-1.1,0-2-0.4-2.7-1.2c-0.7-0.8-1.1-1.8-1.1-3
			c0-0.8,0.2-1.5,0.6-2.3c0.4-0.7,1.1-1.6,2-2.7H81.8z"/>
		<path class="st1" d="M103.1,66.1h1.8c1.4,0,2.1,0.5,2.1,1.5c0,0.7-0.3,1.2-0.8,1.6c-0.5,0.4-1.2,0.6-2.1,0.6h-2.1
			c-1,0-1.6-0.4-2-1.1c-0.8,0.7-1.6,1.1-2.4,1.1h-1.9c-1.2,0-2.2-0.4-3-1.3c-0.8-0.9-1.1-2-1.1-3.4c0-2.1,0.7-4.1,2.2-5.8
			c1.5-1.7,3.2-2.5,5-2.5c1.4,0,2.5,0.5,3.1,1.5c0.6-0.8,1.3-1.3,2.2-1.3c0.5,0,0.9,0.2,1.2,0.5c0.3,0.3,0.5,0.7,0.5,1.2
			c0,0.3-0.1,0.7-0.3,1.1l-0.2,0.5L103.1,66.1z M97,66.2h0.4c0.9,0,1.5-0.4,1.8-1.1l1.2-2.9c0.2-0.4,0.2-0.7,0.2-1
			c0-0.3-0.1-0.6-0.4-0.8c-0.3-0.2-0.7-0.3-1.1-0.3c-0.8,0-1.6,0.5-2.4,1.4c-0.8,1-1.2,1.9-1.2,3C95.6,65.7,96.1,66.2,97,66.2z"/>
		<path class="st1" d="M113.3,61.6l-0.3,0.8c-0.5,1.1-1.2,1.7-2.1,1.7c-0.5,0-0.9-0.2-1.2-0.5c-0.4-0.3-0.5-0.7-0.5-1.1
			c0-0.4,0.2-0.9,0.5-1.6l2.2-4.5c0.5-1.1,1.2-1.6,2-1.6c0.4,0,0.8,0.1,1.1,0.4c0.3,0.3,0.5,0.6,0.5,1c0,0.1,0,0.3-0.1,0.7
			c0,0.2-0.1,0.5-0.1,0.7c0,0.7,0.3,1.4,0.8,2.2l1,1.3c1,1.4,1.5,2.7,1.5,3.9c0,1.4-0.5,2.6-1.6,3.5c-1.1,0.9-2.4,1.4-3.9,1.4h-3.5
			c-1.4,0-2.1-0.5-2.1-1.5c0-0.7,0.3-1.2,0.8-1.6c0.5-0.4,1.2-0.6,2.1-0.6h1.9c1.6,0,2.3-0.6,2.3-1.7c0-0.4-0.1-0.9-0.4-1.5
			L113.3,61.6z"/>
	</g>
	<path class="st2" d="M103.5,28.3c0-5-1.7-9.7-4.6-13.4l0.1-0.1c0.2-0.3,0.6-1,0.6-1.9c0-0.2,0-0.8,0-1.4c0.1-0.1,0.1-0.2,0.2-0.3
		c0.2-0.4,1-1.8,1.1-1.9c0-0.1,0.1-0.1,0.1-0.2c0.4-0.9,0.3-2.3-0.6-3.2c0,0,0,0,0,0c-0.2-0.1-0.8-0.6-1.6-0.6
		c-0.3,0-0.6,0.1-0.8,0.1l-13.5-1c-0.4-0.3-0.9-0.6-1.5-0.6c-0.4,0-0.7,0.1-1.1,0.3c-0.3,0.1-0.8,0.5-2,2.5
		c-7.4,0.7-13.8,5.2-17.1,11.5l-1.3,0.7c-0.4,0.1-1.1,0.3-1.6,0.6c-0.1,0-0.1,0.1-0.2,0.1c-0.8,0.7-1,1.8-0.6,2.7
		c0.2,0.3,0.3,0.5,0.3,0.5c0,0,0.1,0.1,0.1,0.1c0.1,0.3,0.3,0.6,0.6,0.9l0.1,1.1c-0.1,0.2-0.3,0.4-0.3,0.6c-0.2,0.5-0.2,1,0.1,1.5
		c0.1,0.1,0.2,0.3,0.3,0.4c0,0.3,0,0.6,0,0.9c0,0.7,0,1.4,0.1,2.1c-0.2,0.5-0.2,1.1,0,1.5c0.1,0.1,0.1,0.2,0.2,0.3
		c0.1,0.8,0.3,1.6,0.6,2.3c-0.3,0.5-0.3,1.1-0.2,1.7c0.1,0.4,0.4,0.7,0.7,0.9l0,0c0,0.1,0,0.2,0,0.2c0.1,0.6,0.6,1.1,1.1,1.4
		c0.6,1.1,1.3,2.1,2.1,3.1l-1.1,1.3c-1,1.1-1.6,2.8-0.8,4.2c0.1,0.4,0.3,0.8,0.6,1.2c0.1,0.3,0.1,0.5,0.3,0.7c0,0.8,0.2,1.8,0.9,2.7
		c0.6,0.8,1.5,1.2,2.5,1.3c1.3,0.1,2.4-0.8,3.1-1.8l1.4,0.5c0,0,0,0,0.1,0c0.1,0,0.6,0.2,1.2,0.3c0,0.2,0.1,0.4,0.2,0.6
		c0,0.9,0.2,2.1,0.9,3c0.5,0.7,1.3,1.1,2.2,1.1c0.1,0,0.2,0,0.2,0c3,0,4.3-3.5,4.3-4.8c0-0.8-0.2-1.6-0.5-2.2c0.5,0,0.9,0.1,1.4,0.1
		c3.6,0,7-0.9,10-2.5c0.1,0.2,0.2,0.3,0.3,0.5c0.5,0.6,1.2,1,2,1.1c0.1,0,0.2,0,0.3,0c0.8,0,1.5-0.3,2.1-0.9C97.8,47,98,44.7,98,44
		c0-0.4-0.1-0.7-0.2-1C101.3,39.1,103.5,33.9,103.5,28.3z"/>
	<path class="st3" d="M98.8,7.3c0,0-0.5-0.4-0.9,0L83.4,6.2l-0.3-0.1c0,0-0.4-0.6-0.8-0.4c-0.4,0.2-1.4,2-1.4,2v0.2
		c0,0-1,1.5-1.2,3.1l-18,9.4c0,0-0.8,0.2-1.2,0.4c0,0-0.3,0.3-0.2,0.5c0.2,0.3,0.3,0.5,0.3,0.5s0.3-0.1,0.3,0.2c0,0-0.3,0,0,0.3
		c0.3,0.3,0.5,0.3,0.5,0.3l0.4,3c0,0-0.7,0.3-0.6,0.4c0.1,0.2,0.7,0.4,0.7,0.4l0.4,3.8l-0.7,0.4c0,0-0.2,0.3,0.1,0.4
		c0.3,0.1,0.7,0.3,0.7,0.3l0.5,3.5l-0.5,0.2c0,0-0.2,0.3,0,0.4c0.2,0.1,0.6,0.2,0.6,0.2l0.1,1.1c0,0,0.1,0.4,0.7,0l0.1,0
		c0,0,0.1,0.5,0.3,0.5c0.2,0,0.6-0.2,0.6-0.2l0.2,0c0,0,0.1,0.6,0.3,0.5c0.2,0,0.5-0.2,0.5-0.2l0.2,0.1c0,0,0.2,0.5,0.3,0.4
		c0.1,0,0.5-0.2,0.5-0.2l0.2,0c0,0,0.1,0.5,0.2,0.4c0.2,0,0.6-0.2,0.6-0.2l0.2,0c0,0,0,0.5,0.2,0.5c0.2,0,0.6-0.2,0.6-0.2l0.2,0
		c0,0,0,0.5,0.5,0.3l-4.6,5.4c0,0-1.3,1.4-0.4,2.3c0,0-0.1,0.7,0.6,0.9c0,0-0.1,1,0.3,1.1c0,0-0.4,2.7,1.7,2.8
		c1.2,0.1,2.1-2,2.1-2.3l2.9,1.1c0,0,1.4,0.5,2.3,0l0.1,0.2l0,1.5l0.3,0.2c0,0-0.4,3,1.4,3.1c1.8,0.1,2.7-2.4,2.7-3
		c0-0.7-0.2-2.4-1.8-2.3l0-0.3c0,0,0.5-0.1,0.4-0.7c0-0.6,0-0.6,0-0.6l11.5-10c0,0,0.4-0.2,0.8,0.1c0.4,0.4,3.3,4.6,3.3,4.6
		l-0.3,0.2c0,0-0.4,0.4-0.4,0.8c0,0.5,0.1,0.5,0.1,0.5l0.7,0.4c0,0-0.4,2.3,1.1,2.5c1.5,0.2,1.8-2.7,1.8-3.3c0-1.2-0.8-1.3-0.8-1.3
		s0-0.4-1.1-0.5l0-5.4c0,0,0-2-1.3-2.1l0-0.2l0.4-0.1V34c0,0,0.7-0.1,0.8-1c0.1-0.9,2.5-18.1,2.5-18.1h0.2l0.7-1
		c0,0,0.3-0.3,0.2-0.8c0-0.5,0-2.4,0-2.4s0.2,0.2,0.4-0.2c0.2-0.4,1-1.9,1-1.9S99.2,7.8,98.8,7.3z M80.8,11.9l0.2-0.1
		c0.1-0.1-0.1-0.2-0.1-0.2l0.1-0.7c0,0,0.1,0,0.2-0.1c0.1-0.1-0.1-0.2-0.1-0.2V10c0-1,0.8-0.9,0.8-0.9l13.8,1.5
		c0.1,0,0.2,0.1,0.2,0.1c-0.4,0.4-0.8,2.1-0.8,2.1l-0.3,0.2l-0.2,0L74.7,23l-0.3,0.1c-0.3-0.1-0.7,0.2-1,0.3c-0.3,0.1-0.5,0.1-0.8,0
		c-0.3-0.1-0.8,0-0.8,0l-9.1-1.8L80.8,11.9z M75.4,48.3l-8.8-3.1L66.4,45c0,0,0-0.3-0.2-0.3v-0.4l4.4-5.2l0.3-0.1
		c0,0-0.1,0.7,0.7,0.4l0.2,0c0,0,0.1,0.9,0.8,0.3l0.2,0c0,0-0.1,0.7,0.8,0.4H74c0,0,0.1,0.6,0.7,0.2c0,0,0.3,0.1,0.4,0
		c0,0,0.2,0.2,0.2-0.1l0.3-0.2c0,0,0.8,0.3,0.8-0.3c0-0.1,0-0.1,0-0.1l0,0c0,0,0.1-0.3,0,0l0.2,0c0,0,0.8,0.2,0.8,0v0.2
		c0,0-0.2,0.4,0.1,0.6c0.3,0.2,0.8,0.5,0.8,0.5s-0.2,3,2.1,2.3c0.9-0.3,1.1-1.7,1.1-2.8c0,0,0-1.1-1.1-1.5c0,0-0.1-0.3-0.5-0.3
		c0,0,0.1-0.4,0.4-0.4c0.3,0,0.6-0.1,0.7-0.3c0.1-0.2,0.1-0.2,0.1-0.2s0.6,0.6,0.8-0.1l0.1-0.1c0,0,0.7-0.1,0.7-0.3
		c0-0.2,0-0.2,0-0.2h0.3c0,0,0.5,0.3,0.6-0.1h0.1l1.4,0.4c0,0,2.1,0.6,3,0L75.4,48.3z M93,36.7c0,0.5,0,4.4,0,4.4l-2.4-3.5
		c0,0-0.6-0.8-1-0.7c0,0,2.4-1.2,2.8-1.1C92.9,36,93,36.3,93,36.7z M74.2,25c-0.7,0.5-1.8,0.3-1.8,0.3l-10.7-2.3
		c0-0.3,0.2-0.2,0.2-0.2s10.2,2.1,10.7,2.2c0.6,0.1,1,0.1,1,0.1l22.6-11.6l0.1,0.3C96.2,13.7,74.9,24.5,74.2,25z M96.6,9.3l0,0.3
		l-0.4,0.8l-0.3-0.1c0,0,0-0.3-0.2-0.3c-0.3,0-0.4,0.2-0.4,0.2L82.3,8.9c0,0,0.1-0.3-0.1-0.3l0.6-1.2c0,0,11.2,0.8,14.2,1.2
		L96.6,9.3z"/>
</g>
</svg>
